<svg width="37" height="37" viewBox="0 0 37 37" fill="none" xmlns="http://www.w3.org/2000/svg">
<path id="Vector" fill-rule="evenodd" clip-rule="evenodd" d="M18.6912 36.5C28.6323 36.5 36.6912 28.4411 36.6912 18.5C36.6912 8.55888 28.6323 0.5 18.6912 0.5C8.75003 0.5 0.691162 8.55888 0.691162 18.5C0.691162 28.4411 8.75003 36.5 18.6912 36.5ZM24.3066 8.88516C24.5799 7.91425 23.6377 7.34012 22.7772 7.95317L10.765 16.5106C9.83177 17.1755 9.97856 18.5 10.9855 18.5H14.1486V18.4755H20.3134L15.2903 20.2479L13.0758 28.1149C12.8025 29.0858 13.7446 29.6599 14.6052 29.0468L26.6174 20.4894C27.5506 19.8246 27.4037 18.5 26.3969 18.5H21.6001L24.3066 8.88516Z" fill="black"/>
</svg>
